<svg width="32" height="32" viewBox="0 0 32 32" fill="none" xmlns="http://www.w3.org/2000/svg">
  <!-- Background circle with gradient -->
  <defs>
    <linearGradient id="bgGradient" x1="0%" y1="0%" x2="100%" y2="100%">
      <stop offset="0%" style="stop-color:#10B981;stop-opacity:1" />
      <stop offset="100%" style="stop-color:#059669;stop-opacity:1" />
    </linearGradient>
    <linearGradient id="crossGradient" x1="0%" y1="0%" x2="100%" y2="100%">
      <stop offset="0%" style="stop-color:#ffffff;stop-opacity:1" />
      <stop offset="100%" style="stop-color:#f0f9ff;stop-opacity:1" />
    </linearGradient>
  </defs>
  
  <!-- Main background circle -->
  <circle cx="16" cy="16" r="15" fill="url(#bgGradient)" stroke="#047857" stroke-width="1"/>
  
  <!-- Medical cross -->
  <rect x="14" y="8" width="4" height="16" rx="1" fill="url(#crossGradient)"/>
  <rect x="8" y="14" width="16" height="4" rx="1" fill="url(#crossGradient)"/>
  
  <!-- Small heart accent -->
  <path d="M20 10c0-1.1.9-2 2-2s2 .9 2 2c0 1.1-.9 2-2 2s-2-.9-2-2z" fill="#ef4444" opacity="0.8"/>
  <path d="M22 10c0-.6.4-1 1-1s1 .4 1 1-.4 1-1 1-1-.4-1-1z" fill="#dc2626"/>
  
  <!-- Subtle shine effect -->
  <ellipse cx="12" cy="10" rx="3" ry="2" fill="rgba(255,255,255,0.2)" transform="rotate(-20 12 10)"/>
</svg>
